<?xml version="1.0" encoding="UTF-8" standalone="no"?>
<!DOCTYPE svg PUBLIC "-//W3C//DTD SVG 1.1//EN" "http://www.w3.org/Graphics/SVG/1.1/DTD/svg11.dtd">
<svg width="100%" height="100%" viewBox="0 0 1427 543" version="1.1" xmlns="http://www.w3.org/2000/svg" xmlns:xlink="http://www.w3.org/1999/xlink" xml:space="preserve" xmlns:serif="http://www.serif.com/" style="fill-rule:evenodd;clip-rule:evenodd;stroke-linejoin:round;stroke-miterlimit:2;">
    <g id="Horizontal" transform="matrix(0.743229,0,0,0.502778,0,0)">
        <rect x="0" y="0" width="1920" height="1080" style="fill:none;"/>
        <g transform="matrix(1,0,0,1,0,-1.12969)">
            <g id="ICON-LOGO" serif:id="ICON LOGO" transform="matrix(1.34548,0,0,1.98895,-1395.26,-625.525)">
                <path d="M1208,626L1208,569L1159,538L1158,473C1160.49,464.966 1164.71,459.155 1171,456L1347,368L1356,368L1531,454C1537.3,458.265 1541.5,464.024 1544,471L1544,524L1495,553L1495,608L1544,638L1544,701C1541.06,711.66 1535.82,718.473 1528,721L1360,804C1353.67,805.924 1347.33,805.498 1341,802L1172,719C1164.74,715.411 1159.84,709.927 1158,702L1158,657L1208,626Z" style="fill:rgb(249,126,33);"/>
                <g>
                    <g transform="matrix(1,0,0,1,0,-1)">
                        <path d="M1651,581.642L1651,584.926C1651,585.832 1650.26,586.568 1649.36,586.568L1579.64,586.568C1578.74,586.568 1578,585.832 1578,584.926L1578,581.642C1578,580.736 1578.74,580 1579.64,580L1649.36,580C1650.26,580 1651,580.736 1651,581.642Z" style="fill:rgb(249,126,33);"/>
                    </g>
                    <g transform="matrix(1,0,0,1,1,-1)">
                        <circle cx="1563" cy="583" r="19" style="fill:rgb(249,126,33);"/>
                    </g>
                </g>
                <g transform="matrix(-1,-1.22465e-16,1.22465e-16,-1,2707,1170.57)">
                    <g transform="matrix(1,0,0,1,0,-1)">
                        <path d="M1651,581.642L1651,584.926C1651,585.832 1650.26,586.568 1649.36,586.568L1579.64,586.568C1578.74,586.568 1578,585.832 1578,584.926L1578,581.642C1578,580.736 1578.74,580 1579.64,580L1649.36,580C1650.26,580 1651,580.736 1651,581.642Z" style="fill:rgb(249,126,33);"/>
                    </g>
                    <g transform="matrix(1,0,0,1,1,-1)">
                        <circle cx="1563" cy="583" r="19" style="fill:rgb(249,126,33);"/>
                    </g>
                </g>
                <g transform="matrix(1,0,0,1,2,3)">
                    <path d="M1588.54,654.486C1588.54,654.479 1588.54,654.472 1588.54,654.465C1588.54,653.656 1589.19,653 1590,653C1590.81,653 1591.47,653.656 1591.47,654.465C1591.47,654.472 1591.47,654.479 1591.47,654.486L1591.39,659.609L1596.51,659.535C1596.52,659.535 1596.53,659.535 1596.54,659.535C1597.34,659.535 1598,660.192 1598,661C1598,661.808 1597.34,662.465 1596.54,662.465C1596.53,662.465 1596.52,662.465 1596.51,662.465L1591.39,662.391L1591.47,667.514C1591.47,667.521 1591.47,667.528 1591.47,667.535C1591.47,668.344 1590.81,669 1590,669C1589.19,669 1588.54,668.344 1588.54,667.535C1588.54,667.528 1588.54,667.521 1588.54,667.514L1588.61,662.391L1583.49,662.465C1583.48,662.465 1583.47,662.465 1583.47,662.465C1582.66,662.465 1582,661.808 1582,661C1582,660.192 1582.66,659.535 1583.47,659.535C1583.47,659.535 1583.48,659.535 1583.49,659.535L1588.61,659.609L1588.54,654.486Z" style="fill:rgb(249,126,33);"/>
                </g>
                <g transform="matrix(1.375,0,0,1.375,-591.25,-420.875)">
                    <path d="M1589.4,653.374C1589.51,653.145 1589.74,653 1590,653C1590.26,653 1590.49,653.145 1590.6,653.374L1592.93,658.072L1597.63,660.397C1597.86,660.511 1598,660.744 1598,661C1598,661.256 1597.86,661.489 1597.63,661.603L1592.93,663.928L1590.6,668.626C1590.49,668.855 1590.26,669 1590,669C1589.74,669 1589.51,668.855 1589.4,668.626L1587.07,663.928L1582.37,661.603C1582.14,661.489 1582,661.256 1582,661C1582,660.744 1582.14,660.511 1582.37,660.397L1587.07,658.072L1589.4,653.374Z" style="fill:rgb(249,126,33);"/>
                </g>
                <path d="M1115,552.25L1115,554.75C1115,555.44 1114.44,556 1113.75,556L1072.25,556C1071.56,556 1071,555.44 1071,554.75L1071,552.25C1071,551.56 1071.56,551 1072.25,551L1113.75,551C1114.44,551 1115,551.56 1115,552.25Z" style="fill:rgb(249,126,33);"/>
                <g>
                    <path d="M1143,632.25L1143,634.75C1143,635.44 1142.44,636 1141.75,636L1112.25,636C1111.56,636 1111,635.44 1111,634.75L1111,632.25C1111,631.56 1111.56,631 1112.25,631L1141.75,631C1142.44,631 1143,631.56 1143,632.25Z" style="fill:rgb(249,126,33);"/>
                    <g transform="matrix(0.866025,-0.5,0.5,0.866025,-167.36,636.672)">
                        <path d="M1102,616L1115.86,624L1115.86,640L1102,648L1088.14,640L1088.14,624L1102,616Z" style="fill:rgb(249,126,33);"/>
                    </g>
                </g>
                <g transform="matrix(0.987212,0,0,1,19.7442,0)">
                    <path d="M1471.11,487.199C1471.11,487.199 1414.07,518.525 1412.11,519.905C1410.29,521.147 1407.99,521.768 1405.19,521.768C1402.25,521.768 1399.04,520.733 1395.54,518.663C1392.19,516.455 1370,503.45 1363.57,501.38C1348.16,493.172 1335.57,492.034 1324.64,496.966C1317.75,501.76 1310.16,506.222 1308.14,520.742C1307.16,527.714 1310.09,533.645 1314.01,538.337C1318.06,543.029 1323.37,547.031 1329.94,550.343C1336.51,553.655 1343.99,556.622 1352.38,559.244C1360.77,561.866 1369.36,564.695 1378.17,567.731C1386.98,570.629 1395.57,574.079 1403.96,578.081C1412.35,581.945 1419.83,586.913 1426.4,592.985C1432.97,598.919 1438.21,606.233 1442.12,614.927C1446.18,623.621 1448.2,634.178 1448.2,646.598C1448.2,660.122 1445.83,672.818 1441.07,684.686C1436.46,696.416 1429.61,706.697 1420.53,715.529C1411.58,724.223 1400.61,731.123 1387.61,736.229C1374.61,741.197 1359.72,743.681 1342.94,743.681C1333.3,743.681 1323.79,742.715 1314.43,740.783C1305.06,738.989 1296.05,736.367 1287.38,732.917C1278.85,729.467 1270.81,725.327 1263.27,720.497C1255.72,715.667 1226.72,687.285 1220.85,681.351C1220.85,681.351 1278.11,650.129 1280.35,648.887C1282.58,647.507 1284.96,646.817 1287.48,646.817C1290.97,646.817 1294.74,648.266 1298.8,651.164C1302.85,653.924 1307.67,657.029 1313.27,660.479C1318.86,663.929 1333.46,673.103 1340.87,676.001C1348.42,678.761 1350.34,678.141 1360.83,678.141C1376.9,678.141 1388.06,666.54 1388.06,652.464C1388.06,644.598 1379.92,626.105 1373.35,622.793C1366.78,619.343 1359.3,616.445 1350.91,614.099C1342.52,611.753 1334,609.2 1325.33,606.44C1316.66,603.68 1308.14,600.368 1299.75,596.504C1291.36,592.64 1283.88,587.603 1277.31,581.393C1270.74,575.183 1265.43,567.455 1261.38,558.209C1257.46,548.825 1255.51,537.302 1255.51,523.64C1255.51,512.738 1257.67,502.112 1262.01,491.762C1266.48,481.412 1272.91,472.235 1281.3,464.231C1289.68,456.227 1300.03,449.81 1312.33,444.98C1324.63,440.15 1338.75,437.735 1354.69,437.735C1372.58,437.735 1389.07,440.495 1404.17,446.015C1419.27,451.535 1460.49,477.263 1471.11,487.199Z" style="fill:white;fill-rule:nonzero;"/>
                </g>
            </g>
            <g transform="matrix(1.34548,0,0,1.98895,-75.3469,-9.94475)">
                <g transform="matrix(225,0,0,225,1467.86,358.155)">
                </g>
                <text x="651px" y="358.155px" style="font-family:'Lato-Bold', 'Lato';font-weight:700;font-size:225px;fill:rgb(249,126,33);">IONZEE</text>
            </g>
        </g>
    </g>
</svg>
